<svg id="ART" xmlns="http://www.w3.org/2000/svg" viewBox="0 0 477 157"><defs><style>.cls-1,.cls-3{fill:#00a8e1;}.cls-1,.cls-2{fill-rule:evenodd;}.cls-2{fill:#fff;}</style></defs><title>relay_lockup_Artboard 14 copy</title><g id="_Group_" data-name="&lt;Group&gt;"><path id="_Path_" data-name="&lt;Path&gt;" class="cls-1" d="M175.91,105.71c-13.09,9.66-32.07,14.8-48.41,14.8A87.61,87.61,0,0,1,68.36,98c-1.23-1.11-.13-2.62,1.34-1.76a119,119,0,0,0,59.17,15.7A117.72,117.72,0,0,0,174,102.66C176.22,101.72,178.08,104.12,175.91,105.71Z"/><path id="_Path_2" data-name="&lt;Path&gt;" class="cls-1" d="M181.36,99.5c-1.67-2.14-11.07-1-15.29-.51-1.28.15-1.48-1-.32-1.77,7.49-5.26,19.77-3.74,21.2-2s-.38,14.09-7.4,20c-1.08.9-2.11.42-1.63-.77C179.49,110.48,183,101.64,181.36,99.5Z"/><path id="_Path_3" data-name="&lt;Path&gt;" class="cls-2" d="M166.37,60V54.92a1.26,1.26,0,0,1,1.3-1.3h22.92a1.28,1.28,0,0,1,1.32,1.29V59.3c0,.74-.62,1.7-1.73,3.22l-11.87,17a25.42,25.42,0,0,1,13.07,2.81,2.34,2.34,0,0,1,1.22,2v5.46c0,.75-.82,1.62-1.69,1.17a26.4,26.4,0,0,0-24.22,0c-.8.42-1.63-.43-1.63-1.18V84.57a6.17,6.17,0,0,1,.85-3.52l13.76-19.73h-12A1.27,1.27,0,0,1,166.37,60Z"/><path id="_Path_4" data-name="&lt;Path&gt;" class="cls-2" d="M82.76,92h-7a1.31,1.31,0,0,1-1.25-1.18V55a1.32,1.32,0,0,1,1.35-1.29h6.49a1.31,1.31,0,0,1,1.27,1.2v4.67h.13C85.47,55.07,88.66,53,93,53s7.09,2.11,9,6.63a10.3,10.3,0,0,1,17.7-2.71c2.21,3,1.76,7.38,1.76,11.22V90.69A1.32,1.32,0,0,1,120.12,92h-7a1.31,1.31,0,0,1-1.25-1.29v-19a45.76,45.76,0,0,0-.2-6.7c-.52-2.41-2.08-3.09-4.1-3.09a4.62,4.62,0,0,0-4.17,2.94c-.72,1.81-.65,4.82-.65,6.85v19A1.32,1.32,0,0,1,101.44,92h-7a1.31,1.31,0,0,1-1.25-1.29v-19c0-4,.65-9.87-4.3-9.87s-4.82,5.72-4.82,9.87v19A1.31,1.31,0,0,1,82.76,92Z"/><path id="_Compound_Path_" data-name="&lt;Compound Path&gt;" class="cls-2" d="M211.64,53c10.35,0,15.95,8.89,15.95,20.18,0,10.92-6.18,19.58-15.95,19.58-10.15,0-15.69-8.89-15.69-20S201.55,53,211.64,53Zm.06,7.31c-5.14,0-5.47,7-5.47,11.37s-.06,13.71,5.4,13.71,5.66-7.53,5.66-12.13a33.1,33.1,0,0,0-1-9.49A4.37,4.37,0,0,0,211.7,60.27Z"/><path id="_Path_5" data-name="&lt;Path&gt;" class="cls-2" d="M241,92h-6.95a1.31,1.31,0,0,1-1.25-1.29V54.89a1.32,1.32,0,0,1,1.34-1.17h6.47a1.33,1.33,0,0,1,1.24,1v5.47H242c2-4.9,4.69-7.23,9.5-7.23a9.14,9.14,0,0,1,8.14,4.22c1.82,2.86,1.82,7.68,1.82,11.15V90.85A1.32,1.32,0,0,1,260.1,92h-7a1.32,1.32,0,0,1-1.24-1.13V71.41c0-3.92.46-9.64-4.36-9.64a4.56,4.56,0,0,0-4,2.86,15.91,15.91,0,0,0-1.11,6.78V90.69A1.33,1.33,0,0,1,241,92Z"/><path id="_Compound_Path_2" data-name="&lt;Compound Path&gt;" class="cls-2" d="M160.52,85.42c-1.28-1.76-2.64-3.2-2.64-6.47V68.09c0-4.6.33-8.83-3.06-12-2.68-2.57-7.11-3.47-10.5-3.47-6.64,0-14,2.47-15.6,10.67a1.23,1.23,0,0,0,1,1.46l6.76.73a1.47,1.47,0,0,0,1.21-1.28c.58-2.82,2.95-4.19,5.61-4.19a4.65,4.65,0,0,1,3.91,1.82c1,1.43.85,3.39.85,5.05v.91c-4,.45-9.33.75-13.11,2.41a11.86,11.86,0,0,0-7.44,11.4c0,7.25,4.57,10.87,10.44,10.87,5,0,7.67-1.17,11.5-5.07a17.09,17.09,0,0,0,4,4.65,1.44,1.44,0,0,0,1.65-.17l0,0c1.39-1.24,3.92-3.44,5.34-4.63A1.31,1.31,0,0,0,160.52,85.42ZM148.1,74.88c0,2.72.06,5-1.31,7.4A5.66,5.66,0,0,1,142,85.45c-2.68,0-4.24-2-4.24-5.06,0-5.94,5.32-7,10.37-7Z"/><path id="_Compound_Path_3" data-name="&lt;Compound Path&gt;" class="cls-2" d="M69.1,85.42c-1.27-1.76-2.63-3.2-2.63-6.47V68.09c0-4.6.33-8.83-3.06-12-2.68-2.57-7.11-3.47-10.51-3.47-6.63,0-14,2.47-15.59,10.67a1.22,1.22,0,0,0,1,1.46l6.76.73a1.47,1.47,0,0,0,1.21-1.28c.58-2.82,3-4.19,5.61-4.19a4.65,4.65,0,0,1,3.91,1.82c1,1.43.85,3.39.85,5.05v.91c-4,.45-9.33.75-13.12,2.41a11.85,11.85,0,0,0-7.43,11.4c0,7.25,4.56,10.87,10.44,10.87,5,0,7.66-1.17,11.49-5.07a17.15,17.15,0,0,0,4,4.65,1.44,1.44,0,0,0,1.65-.17v0c1.4-1.24,3.93-3.44,5.35-4.63A1.3,1.3,0,0,0,69.1,85.42ZM56.69,74.88c0,2.72.06,5-1.31,7.4a5.67,5.67,0,0,1-4.83,3.17c-2.67,0-4.24-2-4.24-5.06,0-5.94,5.33-7,10.38-7Z"/></g><path class="cls-3" d="M284.43,91.94a1.33,1.33,0,0,1-1.5-1.5V55.29a1.33,1.33,0,0,1,1.5-1.51h3.31a2,2,0,0,1,1.17.3,1.73,1.73,0,0,1,.56,1.13l.53,4.21A25.65,25.65,0,0,1,293.84,56a13.39,13.39,0,0,1,3.72-1.88,13.65,13.65,0,0,1,4.1-.6q.9,0,1.81.08a1.26,1.26,0,0,1,1.28,1.35V59a1.2,1.2,0,0,1-1.35,1.35,11.24,11.24,0,0,1-1.32-.08,12.09,12.09,0,0,0-1.39-.08,15.48,15.48,0,0,0-10.31,3.61V90.44a1.33,1.33,0,0,1-1.51,1.5Z"/><path class="cls-3" d="M326.88,93.07Q317.7,93.07,313,88t-4.7-15.16q0-9.56,4.82-14.86t13.55-5.31q6.62,0,10.35,3.09a10.53,10.53,0,0,1,3.73,8.58,9.49,9.49,0,0,1-4.06,8.28q-4.06,2.86-11.74,2.86A28.3,28.3,0,0,1,315.52,74q.15,6.93,3.12,10T328,87.13a26.82,26.82,0,0,0,8.81-1.51,4.8,4.8,0,0,1,1.35-.3q1,0,1,1.35v2.11a2.73,2.73,0,0,1-.26,1.39,3,3,0,0,1-1.24.87,20.71,20.71,0,0,1-5,1.5A32,32,0,0,1,326.88,93.07Zm-2.63-22.8q4.82,0,7-1.43a5,5,0,0,0,2.22-4.52,5.41,5.41,0,0,0-1.92-4.48,8.52,8.52,0,0,0-5.46-1.54q-9.56,0-10.54,10.61A27.2,27.2,0,0,0,324.24,70.27Z"/><path class="cls-3" d="M357.36,92.32a7.85,7.85,0,0,1-6.1-2.3q-2.11-2.29-2.11-6.58V37.76a1.33,1.33,0,0,1,1.5-1.51h4.44a1.33,1.33,0,0,1,1.51,1.51V83a3.68,3.68,0,0,0,.72,2.52,3.06,3.06,0,0,0,2.37.79,6.11,6.11,0,0,0,.94-.08,5.84,5.84,0,0,1,.87-.08,1.17,1.17,0,0,1,1,.38,2,2,0,0,1,.26,1.13v2.41a1.79,1.79,0,0,1-.34,1.17,2.22,2.22,0,0,1-1.17.64A16.69,16.69,0,0,1,357.36,92.32Z"/><path class="cls-3" d="M379.93,92.92a11.87,11.87,0,0,1-8.54-3,10.74,10.74,0,0,1-3.2-8.16,10.85,10.85,0,0,1,3.91-8.77q3.91-3.27,10.54-3.27a40.61,40.61,0,0,1,9.48,1.28V66q0-4.06-1.84-5.72T384,58.6a34.87,34.87,0,0,0-10.16,1.51,10.78,10.78,0,0,1-2.18.53q-.9,0-.9-1.35v-2A2,2,0,0,1,372.26,55a25.44,25.44,0,0,1,5.91-1.69,40.39,40.39,0,0,1,7.11-.64q7.15,0,10.54,3t3.39,9.07V90.44a1.33,1.33,0,0,1-1.51,1.5h-3.24a1.51,1.51,0,0,1-1.66-1.43L392.43,88a20.59,20.59,0,0,1-6,3.61A17.77,17.77,0,0,1,379.93,92.92Zm1.81-5.64a15.27,15.27,0,0,0,5.19-1,19.64,19.64,0,0,0,5.19-2.86V75.76a34,34,0,0,0-8-1q-8.51,0-8.5,6.55a5.87,5.87,0,0,0,1.58,4.4A6.2,6.2,0,0,0,381.74,87.28Z"/><path class="cls-3" d="M412.29,108.35a16,16,0,0,1-4.29-.53,2,2,0,0,1-1.24-.75,2.79,2.79,0,0,1-.34-1.5v-2q0-1.43,1.13-1.43a6.23,6.23,0,0,1,1.13.15,10.93,10.93,0,0,0,2,.15,6.53,6.53,0,0,0,4.4-1.39,11.81,11.81,0,0,0,2.9-4.93l1.43-3.84L404.92,56.5a5.69,5.69,0,0,1-.53-1.81q0-.9,1.05-.9H410a2.68,2.68,0,0,1,1.66.38,4,4,0,0,1,.9,1.66L423.05,85l10.16-29.2a4,4,0,0,1,.9-1.66,2.68,2.68,0,0,1,1.66-.38H440q1.05,0,1.05.9a5.73,5.73,0,0,1-.53,1.81L424,98.64q-2,5.19-4.74,7.45A10.45,10.45,0,0,1,412.29,108.35Z"/></svg>